<?xml version="1.0"?><svg width="990" height="765" xmlns="http://www.w3.org/2000/svg">
 <title>colorful trees</title>

 <metadata id="metadata7">image/svg+xml</metadata>
 <g>
  <title>Layer 1</title>
  <g externalResourcesRequired="false" id="layer1">
   <g externalResourcesRequired="false" transform="matrix(0.573569 0 0 0.573569 129.249 -17.8802)" id="g3944">
    <path fill="#3f7f00" fill-rule="nonzero" id="path3912" d="m1468.571411,1075.641113c0,32.348145 -365.207642,58.571533 -815.714294,58.571533c-450.506561,0 -815.714294,-26.223389 -815.714294,-58.571533c0,-32.348145 365.207733,-58.571472 815.714294,-58.571472c450.506653,0 815.714294,26.223328 815.714294,58.571472z"/>
    <g externalResourcesRequired="false" id="g3930">
     <g externalResourcesRequired="false" id="g3918">
      <path fill="#80aa1f" fill-opacity="0.784314" fill-rule="nonzero" id="path3914" d="m498.857117,845.212463c0,22.880249 -31.979645,41.428467 -71.428589,41.428467c-39.448883,0 -71.428558,-18.548218 -71.428558,-41.428467c0,-22.880371 31.979675,-41.428589 71.428558,-41.428589c39.448914,0 71.428589,18.548218 71.428589,41.428589z"/>
      <path fill="#80aa1f" fill-opacity="0.784314" fill-rule="nonzero" id="path3916" d="m897.42865,814.640991c0,33.926147 -34.538086,61.428589 -77.142944,61.428589c-42.604736,0 -77.1427,-27.502441 -77.1427,-61.428589c0,-33.926147 34.537964,-61.428589 77.1427,-61.428589c42.604858,0 77.142944,27.502441 77.142944,61.428589z"/>
      <path fill="#d4aaff" fill-rule="nonzero" id="path2998-4-6-6-5-4" d="m1154.285645,554.641052c0,73.375 -63.959229,132.857117 -142.857056,132.857117c-78.897827,0 -142.857178,-59.482178 -142.857178,-132.857117c0,-73.374969 63.959351,-132.857147 142.857178,-132.857147c78.897827,0 142.857056,59.482147 142.857056,132.857147z"/>
      <path fill="#ffaad4" fill-rule="nonzero" id="path2998-4-6-6-5-4-0" d="m1342.857056,464.641052c0,73.375 -63.959229,132.857117 -142.857056,132.857117c-78.897827,0 -142.857178,-59.482178 -142.857178,-132.857117c0,-73.374969 63.959351,-132.857147 142.857178,-132.857147c78.897827,0 142.857056,59.482147 142.857056,132.857147z"/>
      <path fill="#00bfbf" fill-rule="nonzero" id="path2998-4-6-6-5" d="m922.857117,541.783813c0,66.27417 -67.796875,120 -151.428528,120c-83.631714,0 -151.428589,-53.72583 -151.428589,-120c0,-66.274139 67.796875,-119.999969 151.428589,-119.999969c83.631653,0 151.428528,53.7258 151.428528,119.999969z"/>
      <path fill="#80aa1f" fill-opacity="0.784314" fill-rule="nonzero" id="path2998-4-6-6-5-4-0-1" d="m1457.142822,604.641052c0,73.375 -63.959229,132.857117 -142.857056,132.857117c-78.897827,0 -142.857178,-59.482178 -142.857178,-132.857117c0,-73.374939 63.959351,-132.857147 142.857178,-132.857147c78.897827,0 142.857056,59.482147 142.857056,132.857147z"/>
      <path fill="#eaea70" fill-rule="nonzero" id="path2998-4-6-6" d="m714.285706,633.212402c0,75.741943 -76.75116,137.142883 -171.428589,137.142883c-94.677368,0 -171.428558,-61.401001 -171.428558,-137.142883c0,-75.741882 76.75119,-137.142853 171.428558,-137.142853c94.677429,0 171.428589,61.40097 171.428589,137.142853z"/>
      <path fill="#ff007f" fill-rule="nonzero" id="path2998-4-6" d="m619.999939,473.212433c0,61.540314 -62.040527,111.428558 -138.571381,111.428558c-76.530884,0 -138.571411,-49.888306 -138.571411,-111.428558c0,-61.540283 62.040527,-111.428558 138.571411,-111.428558c76.530853,0 138.571381,49.888245 138.571381,111.428558z"/>
      <path fill="#6666e2" fill-opacity="0.784314" fill-rule="nonzero" id="path2998-4" d="m445.714264,558.926697c0,75.741882 -76.75116,137.142883 -171.428558,137.142883c-94.677368,0 -171.428558,-61.401001 -171.428558,-137.142883c0,-75.741882 76.75119,-137.142853 171.428558,-137.142853c94.677399,0 171.428558,61.40094 171.428558,137.142853z"/>
      <path fill="#ffaaaa" fill-rule="nonzero" id="path2998" d="m194.285706,504.640991c0,75.741943 -76.751175,137.142822 -171.428558,137.142822c-94.677383,0 -171.428574,-61.40094 -171.428574,-137.142822c0,-75.741882 76.75119,-137.142853 171.428574,-137.142853c94.677383,0 171.428558,61.40094 171.428558,137.142853z"/>
     </g>
     <path fill="#000000" id="path2996" d="m286.132233,1061.349609l-15.224915,-2.046387l0.016998,-50.081116c0.021606,-63.287231 -1.505005,-108.80249 -6.09021,-181.581177c-4.962738,-78.771606 -14.135803,-183.6521 -16.231995,-185.588989c-0.684738,-0.632568 -10.244965,-6.885254 -21.244965,-13.894653c-11,-7.009399 -20.396194,-13.111816 -20.880432,-13.560791c-0.484238,-0.448975 7.390762,1.636963 17.5,4.635498c23.8284,7.067749 23.880432,7.078613 23.880432,4.954712c0,-0.937256 -2.714035,-28.55603 -6.031189,-61.375c-6.879395,-68.062805 -7.15715,-71.035034 -6.510574,-69.670715c0.260651,0.549988 4.343643,15.399963 9.073318,32.999939c10.64267,39.603394 14.271149,52.635986 14.802551,53.16748c0.226898,0.226807 3.957031,-0.996948 8.289215,-2.719604c9.146942,-3.637207 63.634369,-21.91748 83.376678,-27.97229c7.424988,-2.277222 18.89978,-5.866089 25.499542,-7.975098c6.599762,-2.109009 12.127136,-3.707153 12.283051,-3.551147c0.516296,0.516235 -13.097107,8.219849 -25.391083,14.36853c-6.659698,3.330566 -22.640015,10.549194 -35.511871,16.041138c-29.993683,12.797363 -40.499451,17.692505 -52.862152,24.631226l-10.017487,5.622437l0,3.901367c0,7.537842 9.041199,107.927246 23.549805,261.485962c4.215179,44.613403 13.706757,148.840576 15.43573,169.499939c1.081665,12.925049 2.159607,25.1875 2.395416,27.25c0.513763,4.494019 1.787415,4.401611 -20.105865,1.45874zm727.225006,0.293701c-7.150024,-0.965332 -13.869263,-1.923462 -14.931641,-2.12915c-1.865845,-0.361572 -1.923706,-1.446289 -1.701599,-31.873657c0.46228,-63.337219 -3.370239,-156.281677 -9.916931,-240.499573c-3.920166,-50.430908 -11.381165,-132.338867 -12.108215,-132.925781c-0.187866,-0.151733 -9.913574,-6.258423 -21.612549,-13.570679c-11.699036,-7.312256 -21.139099,-13.42688 -20.977844,-13.588135c0.161194,-0.161133 7.933105,1.935181 17.270935,4.658813c9.337769,2.723511 18.50531,5.377686 20.372192,5.898071l3.394409,0.946289l-0.637939,-8.298096c-0.350769,-4.563965 -3.332886,-33.878418 -6.626953,-65.143311c-3.294006,-31.264771 -5.866699,-56.967712 -5.716919,-57.117432c0.14978,-0.14978 1.892578,5.670471 3.872986,12.934021c16.311218,59.824036 20.217102,72.767151 21.760498,72.107727c7.937439,-3.391602 39.406799,-14.066895 64.627625,-21.923706c17.012573,-5.299927 38.569702,-12.050171 47.904907,-15.00061c9.335083,-2.950439 17.119263,-5.21814 17.298218,-5.039307c0.178833,0.178833 -4.534058,3.053345 -10.473022,6.387817c-12.0625,6.772339 -24.174927,12.320679 -54.298218,24.872314c-39.852783,16.605591 -61,27.208862 -61,30.585815c0,5.103882 18.143555,200.137573 23.509521,252.716187c2.87854,28.204834 18.4375,194.278503 18.479858,197.249939c0.014893,1.025024 -3.324951,0.799805 -18.489319,-1.247559zm-972.500088,-2.59375c-5.225002,-0.758423 -13.452721,-1.678223 -18.283821,-2.043945c-4.8311,-0.365723 -8.9916,-1.001221 -9.24554,-1.412109c-0.25395,-0.410889 -0.0322,-7.205811 0.492829,-15.099854c2.38974,-35.931824 5.60531,-180.559265 8.01189,-360.352722c0.559509,-41.799927 1.18186,-85.329712 1.383011,-96.73291l0.365719,-20.73291l-10.61204,-10.440063c-5.83663,-5.741943 -16.68705,-15.707764 -24.11205,-22.14624c-17.33357,-15.03064 -40.31203,-37.303711 -35.999999,-34.894958c0.825001,0.460876 18.357418,11.360046 38.960929,24.220215c20.60352,12.860291 38.25249,23.805969 39.219939,24.323669c1.441942,0.771729 2.10885,0.255615 3.699911,-2.863037c3.378761,-6.622925 9.015808,-23.893616 16.722359,-51.233704c8.458881,-30.009033 12.668869,-43.234924 16.071472,-50.489136c1.825142,-3.891113 2.243172,-4.340515 1.870689,-2.010864c-2.725502,17.046143 -4.321541,25.057495 -12.052849,60.5c-12.777081,58.573669 -14.431843,75.021545 -18.66246,185.499939c-1.60289,41.858032 -1.615231,170.099121 -0.019703,204.5c3.486332,75.166626 9.108742,127.419556 17.733742,164.812195c0.80077,3.47168 1.45594,6.734131 1.45594,7.25c0,1.239258 -5.389652,1.031982 -17,-0.65332l0.000031,-0.000244zm724.97543,0.030151c-4.688477,-0.733521 -12.695679,-1.752197 -17.793823,-2.26355c-5.098083,-0.511475 -9.433838,-1.097534 -9.634949,-1.302734c-0.201172,-0.204956 0.013855,-5.772705 0.477905,-12.372803c2.467896,-35.103577 5.357971,-159.621643 7.937866,-341.999939c0.544617,-38.5 1.261536,-85.371826 1.59314,-104.159424l0.602905,-34.159424l-3.829224,-4.247559c-2.106079,-2.33606 -15.529236,-14.699829 -29.829224,-27.474976c-23.901611,-21.352905 -41.160522,-37.890991 -37.5,-35.933777c0.824951,0.441101 18.762878,11.561951 39.862061,24.712952c21.099121,13.151123 38.940552,24.132935 39.647644,24.404297c1.826965,0.70105 8.260559,-16.274048 15.078064,-39.783508c12.962097,-44.698547 15.640991,-53.516357 18.549805,-61.059265c1.683044,-4.364258 3.279236,-7.715881 3.546997,-7.448059c0.682007,0.682007 -3.83429,24.77533 -9.258179,49.390564c-7.983826,36.232544 -11.199585,52.981689 -14.353821,74.761719c-1.812439,12.515137 -5.254028,75.197876 -7.13739,129.99646c-1.431274,41.645264 -1.432983,155.36853 -0.002991,190.5c2.945007,72.34436 7.95813,123.126587 16.098083,163.072449c1.63324,8.014893 2.969543,15.102295 2.969543,15.75c0,1.498779 -5.835022,1.367432 -17.024536,-0.383423l0.000122,0zm-298.495911,-2.472046c-1.030273,-1.666992 1.640198,-180.480042 3.072205,-205.712463l0.581421,-10.245483l-19.816559,-9.587036c-10.899139,-5.272949 -21.522766,-10.28125 -23.608063,-11.129761c-8.39386,-3.415283 -1.829742,-2.100342 18.434906,3.692871c11.746124,3.35791 22.096527,6.325195 23.000916,6.593872c1.941437,0.577026 1.875305,1.743652 4.880585,-86.078979c2.101379,-61.408813 5.654694,-162.31897 6.298492,-178.871338l0.383942,-9.871338l-11.378174,-9.020874c-6.257996,-4.961426 -11.217804,-9.181152 -11.02182,-9.377197c0.195984,-0.195923 5.216583,1.008423 11.156921,2.676392c5.940308,1.668091 10.953644,2.879761 11.140747,2.692627c0.187073,-0.187134 0.808228,-17.415039 1.380341,-38.284302c1.232056,-44.944214 2.268951,-69.902466 2.760406,-66.444031c1.476563,10.391174 11.255371,85.763977 11.254852,86.750061c-0.000336,0.6875 0.561859,1.248413 1.249359,1.246338c0.6875,0 10.137512,-2.870483 21.000031,-6.374451c10.862488,-3.503906 19.75,-6.245117 19.75,-6.091431c0,0.153625 -5.0625,3.325928 -11.25,7.049438c-6.1875,3.72345 -15.187531,9.19342 -20.000031,12.155579l-8.75,5.38562l0,65.546387c0,52.041382 0.257538,65.441772 1.25,65.038574c0.6875,-0.279419 11.600006,-4.874146 24.250031,-10.210815c12.649963,-5.336548 38.074951,-16.00293 56.5,-23.703125c18.424988,-7.700073 34.779297,-14.661499 36.342896,-15.469971c9.80481,-5.068848 -3.201538,3.63855 -56.356384,37.729248l-59.949677,38.448608l-0.014618,56c-0.007996,30.799927 -0.730835,93.349976 -1.606262,139c-0.875427,45.650024 -1.439667,101.534668 -1.253845,124.188232l0.33786,41.188416l-7,0.524658c-19.078033,1.429932 -22.435272,1.512573 -23.020477,0.565674zm725.536011,-42.294128c0.014893,-41.477783 1.233887,-116.903809 2.516357,-155.672852l0.611938,-18.5l-23.076416,-10.912354c-12.691895,-6.001709 -22.951294,-11.036987 -22.798706,-11.189575c0.152588,-0.152588 10.381714,2.593262 22.731323,6.101929c12.349731,3.508545 22.625,6.208252 22.833984,5.99939c0.543457,-0.543457 0.996704,-11.090454 2.707397,-62.99939c0.833862,-25.300049 2.61145,-77.050049 3.950195,-115c1.338623,-37.950073 2.563232,-75.275513 2.721313,-82.945557l0.287109,-13.945435l-11.229004,-8.992188c-6.175903,-4.945679 -11.069214,-9.151978 -10.873901,-9.34729c0.19519,-0.19519 5.223633,1.001343 11.174316,2.658936c5.950684,1.657715 11.044067,2.789429 11.318481,2.515015c0.419067,-0.419067 2.545044,-66.577454 3.16333,-98.443542c0.171265,-8.820679 0.246216,-9.142456 1.049316,-4.5c1.042603,6.027405 9.630859,71.421509 10.539307,80.250061c0.353638,3.4375 1.11145,6.25 1.68396,6.25c0.57251,0 9.554077,-2.729431 19.958862,-6.06543c10.404907,-3.335876 19.101318,-5.88208 19.325317,-5.658081c0.223999,0.223999 -8.428467,5.727783 -19.227539,12.230713l-19.634766,11.823364l0.558105,65.084717c0.447021,52.141479 0.8125,65.020996 1.837158,64.764282c0.703491,-0.176025 19.521729,-7.991211 41.818115,-17.366821c22.296509,-9.37561 47.28894,-19.865601 55.53894,-23.311157c8.25,-3.445557 16.800049,-7.016479 19,-7.935303c2.200073,-0.918945 3.550049,-1.249146 3,-0.733765c-0.549927,0.515137 -16.974976,11.174316 -36.5,23.687012c-47.169922,30.229248 -48.036499,30.786011 -66.4552,42.704224l-15.9552,10.324219l-0.208862,62.476074c-0.114868,34.361694 -0.755371,86.325928 -1.42334,115.475952c-0.668213,29.150024 -1.269287,82.109741 -1.33606,117.68811l-0.121338,64.688049l-7,0.527222c-3.849976,0.289917 -10.487427,0.73291 -14.75,0.984741l-7.75,0.457764l0.015015,-43.173035l0.000488,0z"/>
    </g>
   </g>
  </g>
 </g>
</svg>