<svg height="512pt" viewBox="0 0 512.00041 512" width="512pt" xmlns="http://www.w3.org/2000/svg"><path d="m249.863281 135.304688-42.28125-17.710938h-81.203125l-42.28125 17.710938-68.171875 120.90625 211.046875 121.625 68.488282-160.457032zm0 0" fill="#537983"/><path d="m423.453125 315.164062-76.492187 150.882813-89.988282-71.390625-63.59375-50.695312 63.59375-106.1875 47.09375-78.589844c5.398438-9 20.398438-9 25.796875 0zm0 0" fill="#3e5959"/><path d="m436.949219 481.945312c-8.289063 0-14.996094-6.707031-14.996094-14.996093v-59.996094c0-8.289063 6.707031-14.996094 14.996094-14.996094 8.292969 0 15 6.707031 15 14.996094v59.996094c0 8.289062-6.707031 14.996093-15 14.996093zm0 0" fill="#5bc980"/><path d="m234.714844 108.035156-54.625-99.316406c-5.273438-9.519531-20.945313-9.519531-26.21875 0l-54.625 99.316406-15.148438 27.269532 42.28125 42.28125c5.859375 5.859374 15.351563 5.859374 21.207032 0l19.394531-19.394532 19.394531 19.394532c2.929688 2.929687 6.765625 4.394531 10.601562 4.394531 3.835938 0 7.675782-1.464844 10.605469-4.394531l42.28125-42.28125zm0 0" fill="#deecf1"/><path d="m451.949219 121.988281c-33.085938 0-59.992188-27.90625-59.992188-60.996093 0-33.085938 26.90625-60.992188 59.992188-60.992188 33.085937 0 59.992187 27.90625 59.992187 60.992188 0 33.089843-26.90625 60.996093-59.992187 60.996093zm0 0" fill="#eebf00"/><path d="m503.542969 483.445312-480.945313-239.972656c-4.5-2.101562-11.199218-2.101562-15.398437.601563-4.5 2.996093-7.199219 7.796875-7.199219 12.898437v239.972656c0 8.398438 7.597656 14.996094 16 14.996094h480.945312c6.898438 0 12.898438-4.796875 14.695313-11.695312 1.5-6.601563-1.796875-13.503906-8.097656-16.800782zm0 0" fill="#deecf1"/><g fill="#c5d3dd"><path d="m136.96875 399.03125c-2.253906 0-4.539062-.515625-6.691406-1.582031l-59.996094-29.996094c-7.410156-3.707031-10.410156-12.714844-6.707031-20.125 3.707031-7.414063 12.714843-10.386719 20.125-6.710937l59.992187 29.996093c7.414063 3.707031 10.414063 12.714844 6.710938 20.125-2.636719 5.261719-7.925782 8.292969-13.433594 8.292969zm0 0"/><path d="m242.792969 451.949219c-2.257813 0-4.539063-.511719-6.695313-1.582031l-45.828125-22.921876c-7.410156-3.707031-10.414062-12.714843-6.707031-20.125 3.71875-7.410156 12.699219-10.398437 20.125-6.707031l45.828125 22.921875c7.410156 3.703125 10.414063 12.710938 6.707031 20.125-2.636718 5.257813-7.921875 8.289063-13.429687 8.289063zm0 0"/><path d="m511.640625 500.242188c-1.796875 6.898437-7.796875 11.699218-14.695313 11.699218h-239.972656v-151.78125l246.570313 123.285156c6.300781 3.296876 9.597656 10.199219 8.097656 16.796876zm0 0"/></g><path d="m496.945312 421.953125h-119.988281c-4.980469 0-9.621093-2.476563-12.421875-6.59375-2.78125-4.113281-3.351562-9.355469-1.507812-13.972656l59.992187-149.980469c4.570313-11.394531 23.289063-11.394531 27.859375 0l59.992188 149.980469c1.847656 4.613281 1.273437 9.859375-1.507813 13.972656-2.796875 4.117187-7.441406 6.59375-12.417969 6.59375zm0 0" fill="#00ab5e"/></svg>