<svg height="511pt" viewBox="0 -41 511.99773 511" width="511pt" xmlns="http://www.w3.org/2000/svg"><path d="m159.632812 294.953125-122.996093-44.769531c-9.714844-3.535156-20.457031 1.476562-23.992188 11.1875-3.535156 9.714844 1.472657 20.453125 11.1875 23.988281l22.925781 8.34375-30.140624 14.058594c-7.90625 3.683593-11.324219 13.082031-7.640626 20.984375 2.679688 5.746094 8.375 9.125 14.324219 9.125 2.234375 0 4.503907-.480469 6.664063-1.484375l58.765625-27.402344 58.101562 21.144531c2.113281.769532 4.273438 1.136719 6.398438 1.136719 7.644531 0 14.824219-4.722656 17.589843-12.320313 3.535157-9.714843-1.472656-20.457031-11.1875-23.992187zm0 0" fill="#ddaf89"/><path d="m485.785156 285.761719h-24.398437l23.515625-23.515625c6.167968-6.167969 6.167968-16.164063 0-22.332032-6.164063-6.167968-16.167969-6.167968-22.332032 0l-45.847656 45.847657h-61.832031c-10.335937 0-18.714844 8.382812-18.714844 18.71875 0 10.335937 8.378907 18.714843 18.714844 18.714843h130.894531c10.335938 0 18.714844-8.378906 18.714844-18.714843 0-10.335938-8.378906-18.71875-18.714844-18.71875zm0 0" fill="#ddaf89"/><path d="m380.058594 304.054688c0-65.515626-58.136719-118.621094-129.851563-118.621094-71.71875 0-129.855469 53.105468-129.855469 118.621094 0 65.511718 58.136719 118.621093 129.855469 118.621093 71.714844 0 129.851563-53.109375 129.851563-118.621093zm0 0" fill="#ececed"/><path d="m212.703125 190.460938c-53.429687 14.703124-92.351563 59.992187-92.351563 113.59375 0 65.511718 58.136719 118.621093 129.855469 118.621093 16.347657 0 31.988281-2.769531 46.398438-7.808593-118.214844-10.804688-135.128907-141.570313-83.902344-224.40625zm0 0" fill="#dee0e1"/><path d="m417.996094 155.1875c0-83.199219-75.121094-147.191406-167.789063-147.191406-92.671875 0-167.792969 63.992187-167.792969 147.191406 0 83.195312 75.121094 126.101562 167.792969 126.101562 92.667969 0 167.789063-42.90625 167.789063-126.101562zm0 0" fill="#ececed"/><path d="m200.269531 14.464844c-68.28125 18.226562-117.855469 73.136718-117.855469 140.722656 0 83.195312 75.121094 126.101562 167.792969 126.101562 5.152344 0 10.25-.140624 15.285157-.40625-83.203126-23.640624-135.308594-168.152343-65.222657-266.417968zm0 0" fill="#dee0e1"/><path d="m184.742188 159.183594c0-16.835938-17.140626-30.484375-38.28125-30.484375-21.140626 0-38.277344 13.648437-38.277344 30.484375 0 16.835937 17.136718 30.484375 38.277344 30.484375 21.140624 0 38.28125-13.648438 38.28125-30.484375zm0 0" fill="#eb8d9a"/><path d="m392.230469 159.183594c0-16.835938-17.140625-30.484375-38.28125-30.484375s-38.28125 13.648437-38.28125 30.484375c0 16.835937 17.140625 30.484375 38.28125 30.484375s38.28125-13.648438 38.28125-30.484375zm0 0" fill="#eb8d9a"/><path d="m378.09375 367.015625h-23.546875c-6.3125 0-11.433594-5.117187-11.433594-11.429687v-93.253907h46.410157v93.253907c0 6.3125-5.117188 11.429687-11.429688 11.429687zm0 0" fill="#88c8e9"/><path d="m250.207031 304.445312c-50.9375 0-94.554687-4.207031-138.636719-13.507812-10.957031-2.3125-17.859374-13.1875-15.199218-24.066406l3.386718-13.859375c2.53125-10.34375 12.800782-16.855469 23.21875-14.664063 40.269532 8.460938 80.3125 12.289063 127.230469 12.289063 46.914063 0 86.957031-3.828125 127.226563-12.289063 10.421875-2.191406 20.6875 4.320313 23.21875 14.664063l3.386718 13.859375c2.660157 10.878906-4.242187 21.753906-15.199218 24.066406-44.082032 9.300781-87.699219 13.507812-138.632813 13.507812zm0 0" fill="#88c8e9"/><path d="m311.566406 147.089844c0-16.824219-47.976562-30.460938-64.9375-30.460938-16.957031 0-30.703125 13.636719-30.703125 30.460938 0 16.824218 13.746094 30.460937 30.703125 30.460937 16.960938 0 64.9375-13.636719 64.9375-30.460937zm0 0" fill="#f6c273"/><path d="m256.648438 176.578125c-8.230469-7.789063-10.175782-20.132813-10.175782-23.257813 0-4.019531-3.257812-7.28125-7.28125-7.28125-4.019531 0-7.28125 3.261719-7.28125 7.28125 0 4.1875 1.480469 13.867188 6.59375 23.144532 2.589844.703125 5.3125 1.085937 8.125 1.085937 2.671875 0 6.117188-.335937 10.019532-.972656zm0 0" fill="#e6b05e"/><path d="m268.847656 120.214844c-5.84375 8.421875-8.878906 17.875-8.878906 24.429687 0 4.019531 3.257812 7.277344 7.277344 7.277344 4.023437 0 7.28125-3.257813 7.28125-7.277344 0-3.570312 2.875-12.683593 9.144531-19.773437-4.875-1.820313-9.945313-3.390625-14.824219-4.65625zm0 0" fill="#e6b05e"/><g fill="#ade9f0"><path d="m223.242188 250.179688v53.84375c8.78125.28125 17.75.421874 26.964843.421874 9.214844 0 18.179688-.140624 26.960938-.421874v-53.84375c-8.757813.300781-17.722657.457031-26.960938.457031s-18.203125-.15625-26.964843-.457031zm0 0"/><path d="m147.691406 242.949219c-8.265625-1.347657-16.488281-2.875-24.714844-4.601563-10.417968-2.191406-20.6875 4.320313-23.214843 14.664063l-3.390625 13.859375c-2.660156 10.878906 4.242187 21.753906 15.199218 24.066406 8.421876 1.777344 16.828126 3.363281 25.269532 4.777344zm0 0"/><path d="m352.71875 242.949219c8.269531-1.347657 16.488281-2.875 24.714844-4.601563 10.421875-2.191406 20.6875 4.320313 23.21875 14.664063l3.386718 13.859375c2.660157 10.878906-4.242187 21.753906-15.199218 24.066406-8.421875 1.777344-16.828125 3.363281-25.269532 4.777344zm0 0"/><path d="m378.09375 367.015625h-23.546875c-6.3125 0-11.433594-5.117187-11.433594-11.429687v-23.019532h46.410157v23.019532c0 6.3125-5.117188 11.429687-11.429688 11.429687zm0 0"/></g><path d="m319.066406 147.089844c0-10.925782-10.390625-20.523438-30.878906-28.523438-14-5.46875-31.476562-9.4375-41.558594-9.4375-21.066406 0-38.207031 17.027344-38.207031 37.960938s17.140625 37.960937 38.207031 37.960937c10.082032 0 27.558594-3.964843 41.558594-9.433593 20.488281-8.003907 30.878906-17.601563 30.878906-28.527344zm-72.4375 22.960937c-12.796875 0-23.207031-10.300781-23.207031-22.960937s10.410156-22.960938 23.207031-22.960938c7.0625 0 22.117188 2.945313 36.101563 8.410156 15.542969 6.070313 21.335937 12.144532 21.335937 14.550782s-5.792968 8.484375-21.335937 14.554687c-13.984375 5.460938-29.039063 8.40625-36.101563 8.40625zm77.511719-54.792969v13.515626c0 4.144531 3.355469 7.5 7.5 7.5 4.140625 0 7.5-3.355469 7.5-7.5v-13.515626c0-4.144531-3.359375-7.5-7.5-7.5-4.144531 0-7.5 3.355469-7.5 7.5zm-162.871094 0v13.515626c0 4.144531 3.359375 7.5 7.5 7.5 4.144531 0 7.5-3.355469 7.5-7.5v-13.515626c0-4.144531-3.355469-7.5-7.5-7.5-4.140625 0-7.5 3.355469-7.5 7.5zm104.75 80.402344c-3.992187 4.582032-9.753906 7.207032-15.8125 7.207032-6.058593 0-11.824219-2.625-15.816406-7.207032-2.722656-3.121094-7.460937-3.449218-10.582031-.726562s-3.449219 7.460937-.726563 10.582031c6.84375 7.851563 16.730469 12.351563 27.125 12.351563s20.28125-4.5 27.125-12.351563c2.71875-3.121094 2.394531-7.859375-.730469-10.582031-3.121093-2.722656-7.859374-2.394532-10.582031.726562zm-15.8125 149.476563c4.011719 0 7.265625-3.253907 7.265625-7.269531 0-4.011719-3.253906-7.265626-7.265625-7.265626-4.015625 0-7.269531 3.253907-7.269531 7.265626 0 4.015624 3.253906 7.269531 7.269531 7.269531zm235.578125-66.875h-6.289062l10.710937-10.710938c9.082031-9.082031 9.082031-23.859375 0-32.941406-4.398437-4.398437-10.25-6.820313-16.46875-6.820313-6.222656 0-12.074219 2.421876-16.472656 6.820313l-43.652344 43.652344h-2.332031c1.085938-4.265625 1.125-8.757813.042969-13.171875l-3.386719-13.859375c-1.710938-6.996094-5.925781-12.683594-11.464844-16.335938 19.03125-21.671875 29.027344-48.988281 29.027344-79.707031 0-34.640625-12.25-67.183594-35.429688-94.101562-2.703124-3.136719-7.4375-3.492188-10.574218-.789063-3.140625 2.703125-3.492188 7.4375-.792969 10.578125 20.800781 24.15625 31.796875 53.3125 31.796875 84.3125 0 30.054688-10.242188 55.363281-30.441406 75.269531-1.378906.078125-2.769532.257813-4.164063.550781-39.386719 8.273438-79.324219 12.128907-125.6875 12.128907s-86.300781-3.851563-125.6875-12.128907c-1.394531-.292968-2.785156-.472656-4.164062-.550781-20.203125-19.90625-30.441407-45.214843-30.441407-75.269531 0-37.820312 16.535157-73.027344 46.566407-99.132812 30.082031-26.152344 70.46875-40.554688 113.726562-40.554688 38.621094 0 75.78125 11.808594 104.640625 33.253906 3.324219 2.46875 8.023438 1.777344 10.496094-1.546875 2.46875-3.328125 1.777344-8.023437-1.546875-10.496093-31.429687-23.351563-71.769531-36.210938-113.589844-36.210938-46.871093 0-90.757812 15.707031-123.570312 44.234375-33.351563 28.996094-51.722657 68.222656-51.722657 110.453125 0 30.71875 9.992188 58.035156 29.023438 79.707031-5.539062 3.652344-9.75 9.339844-11.460938 16.335938l-2.539062 10.375-50.738281-18.46875c-6.582031-2.394531-13.699219-2.082031-20.046875.875-6.34375 2.960937-11.160156 8.214843-13.554688 14.792969-2.394531 6.582031-2.085937 13.699218.875 20.046874 2.960938 6.347657 8.214844 11.164063 14.792969 13.558594l5.910156 2.148438-13.730469 6.402344c-11.636718 5.429687-16.691406 19.316406-11.265624 30.957031 3.8125 8.171875 12.101562 13.449219 21.121093 13.449219 3.414063 0 6.722657-.734376 9.832031-2.183594l55.949219-26.089844 25.957031 9.445312c3.730469 19.15625 12.226563 37.199219 25.148438 53.046876 1.484375 1.816406 3.644531 2.757812 5.820312 2.757812 1.664063 0 3.339844-.550781 4.734376-1.6875 3.210937-2.617188 3.6875-7.339844 1.070312-10.550781-15.675781-19.222657-23.960938-42.0625-23.960938-66.054688 0-.757812.011719-1.523437.03125-2.289062 38.441407 6.921875 77.796876 10.183593 122.320313 10.183593 30.433594 0 58.445313-1.535156 85.410156-4.707031v48.34375c0 7.535157 4.433594 14.035157 10.820313 17.082031-23.113282 26.8125-58.199219 42.507813-96.230469 42.507813-27.53125 0-53.53125-8.109375-75.1875-23.457031-3.378906-2.394532-8.058594-1.59375-10.453125 1.785156s-1.597656 8.058594 1.78125 10.453125c24.207031 17.152344 53.203125 26.222656 83.859375 26.222656 46.03125 0 88.304687-20.734375 113.929687-55.660156h13.957032c10.4375 0 18.933594-8.492187 18.933594-18.933594v-24.886719h88.757812c14.457031 0 26.214844-11.761718 26.214844-26.214843 0-14.457031-11.757813-26.21875-26.210938-26.21875zm-394.492187 23.671875c-1.867188-.679688-3.929688-.589844-5.734375.25l-58.765625 27.40625c-1.109375.515625-2.285157.777344-3.492188.777344-3.214843 0-6.167969-1.878907-7.523437-4.789063-1.933594-4.144531-.132813-9.089844 4.011718-11.019531l30.140626-14.054688c2.746093-1.28125 4.453124-4.09375 4.320312-7.125s-2.074219-5.683594-4.925781-6.722656l-22.925781-8.34375c-2.816407-1.023438-5.066407-3.085938-6.332032-5.800781-1.265625-2.714844-1.398437-5.757813-.371094-8.574219 1.023438-2.816406 3.082032-5.0625 5.796876-6.332031 2.71875-1.265625 5.761718-1.398438 8.578124-.375l54.804688 19.949219c.65625 3.105468 1.867188 6.109374 3.613281 8.886718 3.980469 6.328125 10.207031 10.664063 17.535157 12.207032.984374.207031 1.96875.398437 2.953124.601562-.078124 1.734375-.125 3.464844-.125 5.175781 0 1.933594.058594 3.859375.152344 5.78125zm290.730469 53.652344c0 2.167968-1.761719 3.929687-3.929688 3.929687h-23.546875c-2.167969 0-3.933594-1.761719-3.933594-3.929687v-50.292969c10.566407-1.507813 21.011719-3.269531 31.410157-5.3125zm13.199218-77.503907c-1.796875 2.859375-4.613281 4.816407-7.933594 5.519531-43.152343 9.105469-86.714843 13.34375-137.082031 13.34375-50.371093 0-93.933593-4.238281-137.085937-13.34375-3.320313-.703124-6.136719-2.660156-7.933594-5.519531-1.78125-2.832031-2.324219-6.179687-1.53125-9.429687l3.386719-13.859375c1.285156-5.246094 5.683593-8.863281 10.757812-9.320313.113281-.007812.230469-.007812.347657-.019531.246093-.015625.492187-.03125.742187-.03125.835937 0 1.6875.085937 2.542969.265625 40.425781 8.492188 81.34375 12.449219 128.773437 12.449219 47.425781 0 88.34375-3.957031 128.769531-12.449219 1.117188-.234375 2.222657-.300781 3.304688-.234375.117188.011719.234375.011719.351562.019531 5.070313.464844 9.453126 4.082032 10.730469 9.320313l3.390625 13.859375c.792969 3.25.25 6.597656-1.53125 9.429687zm90.5625 37.613281h-88.761718v-19.726562c1.535156-.765625 2.984374-1.671875 4.34375-2.707031h15.355468c1.988282 0 3.894532-.789063 5.300782-2.195313l45.851562-45.851562c1.566406-1.566406 3.648438-2.425782 5.863281-2.425782 2.214844 0 4.296875.859376 5.859375 2.429688 3.234375 3.230469 3.234375 8.492188 0 11.726562l-23.515625 23.515626c-2.144531 2.144531-2.785156 5.371093-1.625 8.171874 1.160157 2.804688 3.894531 4.628907 6.929688 4.628907h24.398437c6.183594 0 11.214844 5.03125 11.214844 11.21875 0 6.183593-5.03125 11.214843-11.214844 11.214843zm-235.578125 65.140626c4.011719 0 7.265625-3.253907 7.265625-7.269532 0-4.011718-3.253906-7.265625-7.265625-7.265625-4.015625 0-7.269531 3.253907-7.269531 7.265625 0 4.015625 3.253906 7.269532 7.269531 7.269532zm0 0"/></svg>