<svg height="512pt" viewBox="0 -7 512.00007 512" width="512pt" xmlns="http://www.w3.org/2000/svg"><path d="m500.257812 206.800781-29.859374 9.703125 25.050781 15.886719c3.472656 2.199219 5.878906 5.460937 7.058593 9.089844 1.511719 4.644531 1.003907 9.910156-1.8125 14.355469-5.027343 7.917968-15.515624 10.28125-23.445312 5.253906l-48.816406-30.957032-31.664063 10.289063 25.050781 15.890625c3.484376 2.195312 5.886719 5.460938 7.058594 9.089844 1.515625 4.640625 1.015625 9.90625-1.804687 14.355468-5.023438 7.917969-15.515625 10.269532-23.441407 5.253907l-48.808593-30.960938-35.695313 11.597657c.042969.882812.074219 1.765624.074219 2.644531 0 14.84375-5.128906 28.472656-13.679687 39.25l22.054687 30.359375 57.6875 3.648437c9.359375.597657 16.46875 8.664063 15.878906 18.023438-.332031 5.261719-3.027343 9.804687-6.976562 12.683593-3.085938 2.238282-6.953125 3.460938-11.058594 3.203126l-29.609375-1.875 19.578125 26.9375 57.675781 3.648437c9.371094.589844 16.46875 8.664063 15.890625 18.023437-.34375 5.265626-3.027343 9.8125-6.976562 12.683594-3.085938 2.25-6.941407 3.472656-11.046875 3.203125l-29.613282-1.863281 18.449219 25.402344c2.1875 3.015625 3.246094 6.507812 3.246094 9.96875 0 5.257812-2.425781 10.4375-6.996094 13.765625-7.597656 5.511719-18.222656 3.824219-23.734375-3.761719l-18.460937-25.402344-7.367188 28.738282c-1.015625 3.992187-3.378906 7.277343-6.46875 9.527343-3.949219 2.867188-9.109375 4.007813-14.21875 2.703125-9.082031-2.332031-14.5625-11.578125-12.230469-20.675781l14.355469-55.988281-19.570312-26.9375-7.367188 28.738281c-1.027343 3.992187-3.378906 7.289063-6.46875 9.527344-3.949219 2.871093-9.109375 4.019531-14.210937 2.714843-9.085938-2.332031-14.570313-11.578124-12.238282-20.675781l14.355469-55.992187-22.046875-30.335938c-6.859375 2.5625-14.28125 3.960938-22.035156 3.960938-7.75 0-15.171875-1.398438-22.035156-3.960938l-22.042969 30.335938 14.355469 55.992187c2.332031 9.097657-3.152344 18.34375-12.242188 20.675781-5.097656 1.304688-10.261718.15625-14.210937-2.714843-3.085938-2.238281-5.441407-5.535157-6.464844-9.527344l-7.371094-28.738281-19.566406 26.9375 10.953125 42.742187c0 .007813 0 .007813.011719.019531l3.390625 13.226563c2.332031 9.097656-3.152344 18.34375-12.230469 20.675781-5.109375 1.304688-10.273437.164063-14.222656-2.703125-3.085938-2.25-5.449219-5.535156-6.464844-9.527343l-7.371094-28.738282-18.457031 25.402344c-3.328125 4.570312-8.511719 7.003906-13.765625 7.003906-3.460937 0-6.953125-1.054687-9.96875-3.242187-7.585937-5.523438-9.265625-16.148438-3.753906-23.734375l18.449219-25.402344-29.609376 1.863281c-4.105468.269531-7.960937-.953125-11.050781-3.203125-3.949219-2.871094-6.632812-7.417968-6.972656-12.683594-.582031-9.359374 6.519531-17.433593 15.886719-18.023437l57.679687-3.648437 15.339844-21.101563 4.238281-5.835937-5.027344.320312-24.585937 1.554688c-4.101563.257812-7.96875-.964844-11.058594-3.203126-3.949219-2.878906-6.644531-7.421874-6.972656-12.683593-.59375-9.359375 6.519531-17.425781 15.875-18.023438l23.695313-1.503906 33.996093-2.144531 22.054688-30.359375c-8.550781-10.777344-13.679688-24.40625-13.679688-39.25 0-.878907.027344-1.761719.070313-2.644531l-35.695313-11.597657-.652343.417969-48.152344 30.542969c-7.929688 5.015625-18.417969 2.664062-23.445313-5.253907-2.820312-4.449218-3.316406-9.714843-1.804687-14.355468 1.171875-3.628906 3.578125-6.894532 7.058594-9.089844l25.050781-15.890625-31.664063-10.289063-48.816406 30.957032c-7.925781 5.027344-18.414062 2.664062-23.441406-5.253906-2.820313-4.445313-3.328125-9.710938-1.816406-14.355469 1.183593-3.628907 3.585937-6.890625 7.058593-9.089844l25.0625-15.886719-29.871093-9.703125c-7.183594-2.332031-11.742188-8.996093-11.742188-16.15625 0-1.742187.269531-3.515625.839844-5.257812 2.890625-8.921875 12.476562-13.804688 21.402344-10.914063l29.871093 9.714844-10.933593-27.589844c-1.527344-3.824218-1.546876-7.878906-.363282-11.507812 1.5-4.640625 5.003906-8.601563 9.90625-10.539063 8.71875-3.460937 18.59375.808594 22.054688 9.523438l21.289062 53.742187 31.664063 10.289063-10.925781-27.589844c-1.523438-3.824219-1.550782-7.863281-.371094-11.492187 1.511718-4.652344 5.007812-8.613282 9.898437-10.5625 8.726563-3.449219 18.59375.820312 22.054688 9.535156l19.339843 48.808594 1.960938 4.929687 35.671875 11.589844c8.292969-12.449219 20.886719-21.785157 35.65625-25.902344v-37.507813l-38.878906-32.179687-5.648438-4.675781c-7.234375-5.992188-8.230469-16.699219-2.257812-23.921875 3.367187-4.0625 8.207031-6.15625 13.097656-6.15625 7.96875 0 11.925781 5.113281 13.382813 6.03125l20.304687 16.792969v-33.300782l-4.664063-3.855468-39.863281-33c-7.234375-5.980469-8.230469-16.6875-2.257812-23.914063 6.046875-7.296875 16.769531-8.199219 23.917969-2.269531l22.867187 18.925781v-31.402344c0-9.394531 7.613281-16.988281 16.984375-16.988281 9.378906 0 16.988281 7.609375 16.988281 16.988281v31.402344l22.730469-18.8125.132812-.113281c.425782-.351563.871094-.683594 1.316407-.992188 2.882812-1.949218 6.207031-2.902344 9.503906-2.902344 4.894531 0 9.734375 2.101563 13.101563 6.164063 5.96875 7.226563 4.976562 17.933594-2.257813 23.914063l-44.527344 36.855468v33.300782l22.863281-18.917969c3.160157-2.632813 7.007813-3.90625 10.820313-3.90625 4.894531 0 9.734375 2.09375 13.101563 6.15625 5.96875 7.222656 4.976562 17.929687-2.257813 23.921875l-44.527344 36.855468v37.507813c14.769531 4.117187 27.363281 13.453125 35.652344 25.902344l35.675781-11.589844 21.296875-53.738281c3.464844-8.714844 13.332031-12.984375 22.058594-9.535156 4.890625 1.949218 8.382813 5.910156 9.898437 10.5625 1.179688 3.628906 1.148438 7.667968-.375 11.492187l-10.925781 27.589844 31.664063-10.289063 21.289062-53.742187c3.460938-8.714844 13.339844-12.984375 22.054688-9.523438 4.902344 1.9375 8.40625 5.898438 9.910156 10.539063 1.179688 3.628906 1.160156 7.683594-.363281 11.507812l-10.933594 27.589844 29.871094-9.714844c8.921875-2.890625 18.507812 1.992188 21.402343 10.914063 2.902344 8.925781-1.980468 18.511719-10.90625 21.414062zm0 0" fill="#c2eaf2"/><path d="m166.34375 420.300781c-5.578125-13.941406-10.109375-27.914062-12.078125-40.882812l4.238281-5.832031-5.027344.320312c-1.523437-11.132812-2.550781-22.429688-3.046874-33.859375l33.996093-2.148437 22.054688-30.355469c-8.550781-10.78125-13.679688-24.410157-13.679688-39.25 0-.882813.027344-1.761719.070313-2.644531l-35.695313-11.597657-.652343.414063c2.414062-12.796875 5.492187-25.371094 9.203124-37.664063l1.960938 4.933594 35.671875 11.589844c8.292969-12.449219 20.886719-21.789063 35.65625-25.902344v-37.507813l-38.878906-32.183593c5.753906-9.875 11.949219-19.464844 18.574219-28.71875l20.304687 16.789062v-33.296875l-4.664063-3.855468c11.84375-14.378907 24.769532-27.839844 38.636719-40.257813 7.316407-6.570313 14.902344-12.851563 22.730469-18.8125.476562-.371094.960938-.734375 1.449219-1.105469 2.882812-1.949218 6.207031-2.902344 9.503906-2.902344 4.894531 0 9.734375 2.101563 13.101563 6.164063 5.96875 7.226563 4.976562 17.933594-2.257813 23.914063l-44.527344 36.855468v33.300782l22.863281-18.917969c3.160157-2.632813 7.007813-3.90625 10.820313-3.90625 4.894531 0 9.734375 2.09375 13.101563 6.15625 5.96875 7.222656 4.976562 17.929687-2.257813 23.921875l-44.527344 36.855468v37.507813c14.769531 4.117187 27.363281 13.453125 35.652344 25.902344l35.675781-11.589844 21.296875-53.738281c3.464844-8.714844 13.332031-12.984375 22.058594-9.535156 4.890625 1.949218 8.382813 5.910156 9.898437 10.5625 1.179688 3.628906 1.148438 7.667968-.375 11.492187l-10.925781 27.589844 31.664063-10.289063 21.289062-53.742187c3.460938-8.714844 13.339844-12.984375 22.054688-9.523438 4.902344 1.9375 8.40625 5.898438 9.910156 10.539063 1.179688 3.628906 1.160156 7.683594-.363281 11.507812l-10.933594 27.589844 29.871094-9.714844c8.921875-2.890625 18.507812 1.992188 21.402343 10.914063 2.902344 8.925781-1.980468 18.511719-10.90625 21.414062l-29.859374 9.703125 25.050781 15.886719c3.472656 2.199219 5.878906 5.460937 7.058593 9.089844 1.511719 4.644531 1.003907 9.910156-1.8125 14.355469-5.027343 7.917968-15.515624 10.28125-23.445312 5.253906l-48.816406-30.957032-31.664063 10.289063 25.050781 15.890625c3.484376 2.195312 5.886719 5.460938 7.058594 9.089844 1.515625 4.640625 1.015625 9.90625-1.804687 14.355468-5.023438 7.917969-15.515625 10.269532-23.441407 5.253907l-48.808593-30.960938-35.695313 11.597657c.042969.882812.074219 1.765624.074219 2.644531 0 14.84375-5.128906 28.472656-13.679687 39.25l22.054687 30.359375 57.6875 3.648437c9.359375.597657 16.46875 8.664063 15.878906 18.023438-.332031 5.261719-3.027343 9.804687-6.976562 12.683593-3.085938 2.238282-6.953125 3.460938-11.058594 3.203126l-29.609375-1.875 19.578125 26.9375 57.675781 3.648437c9.371094.589844 16.46875 8.664063 15.890625 18.023437-.34375 5.265626-3.027343 9.8125-6.976562 12.683594-3.085938 2.25-6.941407 3.472656-11.046875 3.203125l-29.613282-1.863281 18.449219 25.402344c2.1875 3.015625 3.246094 6.507812 3.246094 9.96875 0 5.257812-2.425781 10.4375-6.996094 13.765625-7.597656 5.511719-18.222656 3.824219-23.734375-3.761719l-18.460937-25.402344-7.367188 28.738282c-1.015625 3.992187-3.378906 7.277343-6.46875 9.527343-3.949219 2.867188-9.109375 4.007813-14.21875 2.703125-9.082031-2.332031-14.5625-11.578125-12.230469-20.675781l14.355469-55.988281-19.570312-26.9375-7.367188 28.738281c-1.027343 3.992187-3.378906 7.289063-6.46875 9.527344-3.949219 2.871093-9.109375 4.019531-14.210937 2.714843-9.085938-2.332031-14.570313-11.578124-12.238282-20.675781l14.355469-55.992187-22.046875-30.335938c-6.859375 2.5625-14.28125 3.960938-22.035156 3.960938-7.75 0-15.171875-1.398438-22.035156-3.960938l-22.042969 30.335938 14.355469 55.992187c2.332031 9.097657-3.152344 18.34375-12.242188 20.675781-5.097656 1.304688-10.261718.15625-14.210937-2.714843-3.085938-2.238281-5.441407-5.535157-6.464844-9.527344l-7.371094-28.738281-19.484375 26.820312-.082031.117188zm0 0" fill="#def4f8"/></svg>