<svg height="512pt" viewBox="-45 0 511 512" width="512pt" xmlns="http://www.w3.org/2000/svg"><g fill-rule="evenodd"><path d="m330.503906 172.328125c-33.445312 2.894531-145.328125 8.289063-185-44.078125 0 0-23.976562 45.382812-55 43.523438v78.226562c0 28.433594 10.019532 54.640625 26.714844 75.253906-17.199219 9.144532-32.925781 20.722656-46.714844 34.273438-8.996094 8.839844-17.164062 18.519531-24.382812 28.90625-22.351563-15.957032-35.621094-41.722656-35.621094-69.183594 22.097656 0 40.007812-17.914062 40.007812-40.007812v-109.242188c-.003906-88.367188 71.632813-160 159.996094-160 88.363282 0 160 71.632812 160 160l-.003906.089844v109.152344c0 22.09375 17.914062 40.007812 40.007812 40.007812 0 27.460938-13.265624 53.226562-35.617187 69.183594-7.214844-10.386719-15.386719-20.066406-24.382813-28.90625-13.789062-13.550782-29.515624-25.128906-46.707031-34.269532 16.683594-20.621093 26.703125-46.824218 26.703125-75.257812zm0 0" fill="#aa836d"/><path d="m145.503906 128.25c39.671875 52.367188 151.554688 46.96875 185 44.078125v77.671875c0 28.433594-10.019531 54.636719-26.707031 75.253906-9.238281 11.425782-20.527344 21.136719-33.289063 28.554688-17.675781 10.292968-38.183593 16.191406-60.003906 16.191406-21.816406 0-42.320312-5.902344-60-16.1875-12.761718-7.421875-24.050781-17.128906-33.285156-28.558594-16.695312-20.613281-26.714844-46.820312-26.714844-75.253906v-78.226562c31.023438 1.859374 55-43.523438 55-43.523438zm0 0" fill="#f4cdac"/><path d="m350.507812 502v-142.476562c8.996094 8.84375 17.167969 18.523437 24.382813 28.90625 22.4375 32.3125 35.617187 71.476562 35.617187 113.570312zm0 0" fill="#fd4848"/><path d="m350.507812 359.523438v142.476562l-140.003906-.003906v-131.996094l59.382813 50.007812 33.902343-94.738281c.003907-.003906.007813-.007812.003907-.015625 17.199219 9.140625 32.925781 20.722656 46.714843 34.269532zm0 0" fill="#ff836c"/><path d="m303.789062 325.269531-33.898437 94.738281-59.382813-50.007812c37.558594 0 71.234376-17.492188 93.28125-44.730469zm0 0" fill="#fd4848"/><path d="m70.5 502v-142.476562c-9 8.84375-17.167969 18.523437-24.382812 28.90625-22.4375 32.3125-35.621094 71.476562-35.621094 113.570312zm0 0" fill="#fd4848"/><path d="m70.5 359.523438v142.476562l140.003906-.003906v-131.996094l-59.386718 50.007812-33.902344-94.738281c-.003906-.003906-.003906-.007812-.003906-.015625-17.199219 9.140625-32.925782 20.722656-46.710938 34.269532zm0 0" fill="#ff836c"/><path d="m117.214844 325.269531 33.902344 94.738281 59.382812-50.007812c-37.5625 0-71.238281-17.492188-93.285156-44.730469zm0 0" fill="#fd4848"/><path d="m300.503906 230.003906c0 22.09375-17.90625 40-40 40-22.089844 0-40-17.90625-40-40 0-22.089844 17.910156-40 40-40 22.09375 0 40 17.910156 40 40zm0 0" fill="#8eecf0"/><path d="m200.503906 230.003906c0 22.09375-17.910156 40-40 40-22.09375 0-40-17.90625-40-40 0-22.089844 17.90625-40 40-40 22.089844 0 40 17.910156 40 40zm0 0" fill="#8eecf0"/></g><path d="m185.507812 312.328125c7.589844 4.382813 16.234376 6.699219 25 6.699219 8.765626 0 17.40625-2.316406 25-6.699219 4.78125-2.761719 6.421876-8.875 3.660157-13.660156-2.761719-4.78125-8.878907-6.421875-13.660157-3.660157-4.554687 2.628907-9.742187 4.019532-15 4.019532-5.261718 0-10.449218-1.390625-15-4.019532-4.78125-2.761718-10.898437-1.121093-13.660156 3.660157-2.761718 4.785156-1.125 10.898437 3.660156 13.660156zm0 0"/><path d="m420.507812 319.246094c0-5.519532-4.476562-10-10-10-16.546874 0-30.007812-13.460938-30.007812-30.003906v-109.140626c0-.035156 0-.070312 0-.105468 0-93.734375-76.261719-169.996094-169.996094-169.996094-36.496094 0-71.285156 11.394531-100.609375 32.957031-4.449219 3.269531-5.40625 9.527344-2.132812 13.976563 1.957031 2.667968 4.992187 4.078125 8.0625 4.078125 2.058593 0 4.132812-.632813 5.917969-1.945313 25.867187-19.015625 56.558593-29.066406 88.761718-29.066406 82.707032 0 149.996094 67.289062 149.996094 149.988281v.101563 109.152344c0 23.960937 16.945312 44.027343 39.476562 48.878906-2.097656 17.511718-10.339843 33.78125-23.1875 45.835937-15.765624-20.40625-35.394531-38.046875-58.203124-51.804687 13.835937-20.65625 21.917968-45.476563 21.917968-72.152344v-68.621094c.367188-.042968.648438-.078125.816406-.101562 5.480469-.695313 9.355469-5.699219 8.660157-11.179688-.695313-5.480468-5.707031-9.363281-11.179688-8.660156-1.417969.179688-142.441406 17.378906-185.328125-39.230469-2.058594-2.71875-5.371094-4.195312-8.769531-3.921875-3.402344.269532-6.433594 2.265625-8.035156 5.277344-.234375.441406-24.246094 44.113281-49.628907 37.585938-5.347656-1.375-10.796874 1.84375-12.171874 7.191406-1.238282 4.804687 1.242187 9.683594 5.632812 11.625v70.03125c0 26.679687 8.082031 51.5 21.917969 72.15625-22.804688 13.757812-42.433594 31.398437-58.199219 51.808594-12.847656-12.058594-21.089844-28.328126-23.1875-45.839844 22.53125-4.851563 39.472656-24.921875 39.472656-48.882813v-109.148437c0-.027344 0-.097656 0-.152344.011719-26.183594 6.867188-51.945312 19.824219-74.519531 2.75-4.789063 1.097656-10.902344-3.691406-13.648438-4.792969-2.75-10.902344-1.097656-13.652344 3.691407-14.707031 25.613281-22.480469 54.847656-22.480469 84.535156 0 .035156.003906.105468.003906.164062v109.082032c0 16.542968-13.460937 30.003906-30.007812 30.003906-5.523438 0-10 4.480468-10 10 0 27.351562 11.878906 53.324218 32.171875 71.242187-20.667969 32.832031-32.167969 71.285157-32.167969 111.511719 0 5.523438 4.476563 10 10 10h400.003906c5.523438 0 10-4.476562 10-10 0-40.230469-11.5-78.683594-32.167968-111.515625 20.289062-17.917969 32.167968-43.886719 32.167968-71.238281zm-366.867187 75.753906c.214844-.242188.425781-.488281.617187-.757812.253907-.359376.472657-.730469.675782-1.109376 1.792968-2.554687 3.648437-5.0625 5.570312-7.53125v106.398438h-39.734375c1.851563-35.253906 13.46875-68.667969 32.871094-97zm26.863281-31.3125c9.488282-8.898438 19.957032-16.898438 31.308594-23.835938l29.886719 83.523438c1.105469 3.085938 3.648437 5.433594 6.808593 6.285156.863282.234375 1.738282.347656 2.605469.347656 2.332031 0 4.621094-.8125 6.441407-2.351562l42.945312-36.164062v100.507812h-119.996094zm59.453125-4.542969c13.75 8.914063 29.28125 15.304688 45.933594 18.507813l-30.207031 25.4375zm80.542969 32.347657 42.945312 36.164062c1.824219 1.535156 4.113282 2.351562 6.441407 2.351562.871093 0 1.746093-.113281 2.605469-.347656 3.164062-.851562 5.707031-3.199218 6.808593-6.285156l29.890625-83.527344c11.355469 6.9375 21.824219 14.941406 31.3125 23.839844v128.3125h-120.003906zm14.613281-13.839844c16.652344-3.203125 32.183594-9.589844 45.929688-18.507813l-15.722657 43.945313zm125.394531 7.949218c1.914063 2.457032 3.761719 4.960938 5.550782 7.503907.207031.386719.429687.769531.691406 1.136719.203125.285156.421875.542968.648438.800781 19.386718 28.324219 30.992187 61.722656 32.84375 96.957031h-39.734376zm-40.003906-202.460937v3.53125l-15.472656 20.628906c-5.328125-10.402343-14.183594-18.714843-24.992188-23.320312 3.496094.078125 6.921876.121093 10.234376.121093 11.574218 0 21.914062-.433593 30.230468-.960937zm-90 46.855469c.003906-16.539063 13.460938-29.992188 30-29.992188 16.542969 0 30 13.457032 30 30 0 16.542969-13.457031 30-30 30-16.539062 0-29.996094-13.453125-30-29.992187zm-83.519531-85.242188c24.667969 23.148438 63.476563 33.207032 99.964844 37.132813-17.855469 5.039062-31.699219 19.757812-35.4375 38.117187h-2.015625c-4.644532-22.792968-24.847656-40-48.996094-40-19.394531 0-36.238281 11.113282-44.523438 27.296875l-15.476562-20.632812v-5.636719c20.953125-4.136719 37.511719-23.390625 46.484375-36.277344zm43.515625 85.261719c-.003906 16.539063-13.460938 29.988281-30 29.988281s-30-13.457031-30-30c0-16.542968 13.460938-30 30-30s29.996094 13.449219 30 29.988282v.011718zm-89.996094-10.011719 10.136719 13.515625c1.8125 25.933594 23.476563 46.484375 49.859375 46.484375 24.148438 0 44.351562-17.203125 48.996094-40h2.015625c4.644531 22.796875 24.847656 40 48.992187 40 26.386719 0 48.050782-20.550781 49.863282-46.484375l10.136718-13.515625v29.996094c0 25.660156-8.835937 49.296875-23.621094 68.03125-.097656.09375-1.582031 1.941406-1.628906 2.015625-20.191406 24.386719-50.6875 39.953125-84.753906 39.953125s-64.566406-15.570312-84.757812-39.964844c-.019532-.027344-1.503907-1.898437-1.636719-2.023437-14.773438-18.730469-23.601563-42.359375-23.601563-68.011719zm0 0"/><path d="m81.226562 74.921875c1.890626 1.632813 4.21875 2.429687 6.535157 2.429687 2.804687 0 5.59375-1.171874 7.570312-3.460937.054688-.0625.113281-.132813.167969-.199219 3.480469-4.207031 2.941406-10.441406-1.230469-13.988281-4.207031-3.578125-10.519531-3.066406-14.097656 1.140625-.03125.035156-.0625.078125-.097656.121094-3.476563 4.175781-2.976563 10.386718 1.152343 13.957031zm0 0"/><path d="m174.886719 462h-.234375c-5.523438 0-10 4.476562-10 10s4.476562 10 10 10h.234375c5.523437 0 10-4.476562 10-10s-4.476563-10-10-10zm0 0"/><path d="m320.503906 462h-41.035156c-5.523438 0-10 4.476562-10 10 0 5.519531 4.476562 10 10 10h41.035156c5.523438 0 10-4.480469 10-10 0-5.523438-4.476562-10-10-10zm0 0"/><path d="m250.738281 462h-.234375c-5.523437 0-10 4.480469-10 10 0 5.523438 4.476563 10 10 10h.234375c5.523438 0 10-4.476562 10-10 0-5.519531-4.476562-10-10-10zm0 0"/></svg>